<svg width="24" height="24" viewBox="0 0 24 24" fill="none" xmlns="http://www.w3.org/2000/svg">
    <g clipPath="url(#a)">
        <path d="M23.444 11.722C23.444 5.248 18.196 0 11.722 0 5.248 0 0 5.248 0 11.722c0 5.851 4.287 10.7 9.89 11.58v-8.191H6.915v-3.389h2.977V9.14c0-2.938 1.75-4.561 4.427-4.561 1.282 0 2.624.229 2.624.229v2.885h-1.478c-1.456 0-1.91.903-1.91 1.831v2.198h3.25l-.519 3.389h-2.731v8.191c5.604-.88 9.89-5.729 9.89-11.58z" fill="#051912"/>
    </g>
    <defs>
        <clipPath id="a">
            <path fill="#051912" d="M0 0h23.444v23.444H0z"/>
        </clipPath>
    </defs>
</svg>
