<svg width="24" height="24" viewBox="0 0 24 24" fill="none" xmlns="http://www.w3.org/2000/svg">
    <g clipPath="url(#a)">
        <path d="M22.042 0H2.064C1.107 0 .333.756.333 1.69v20.06c0 .934.774 1.694 1.73 1.694h19.979c.957 0 1.735-.76 1.735-1.69V1.69C23.777.756 23 0 22.043 0zM7.288 19.978h-3.48V8.788h3.48v11.19zM5.548 7.262a2.016 2.016 0 1 1 0-4.03 2.015 2.015 0 0 1 0 4.03zm14.763 12.716h-3.475v-5.44c0-1.296-.023-2.967-1.809-2.967-1.809 0-2.083 1.415-2.083 2.876v5.531H9.473V8.788h3.333v1.528h.046c.463-.879 1.598-1.808 3.288-1.808 3.52 0 4.171 2.317 4.171 5.33v6.14z" fill="#fff"/>
    </g>
    <defs>
        <clipPath id="a">
            <path fill="#fff" transform="translate(.333)" d="M0 0h23.444v23.444H0z"/>
        </clipPath>
    </defs>
</svg>
